<svg width="56" height="56" viewBox="0 0 56 56" fill="none" xmlns="http://www.w3.org/2000/svg">
<rect width="56" height="56" rx="16" fill="#FDB713"/>
<path d="M27.5 17.75C32.8739 17.75 37.25 22.1261 37.25 27.5C37.25 32.8739 32.8739 37.25 27.5 37.25C22.1261 37.25 17.75 32.8739 17.75 27.5C17.75 22.1261 22.1261 17.75 27.5 17.75ZM27.5 18.25C22.3935 18.25 18.25 22.4042 18.25 27.5C18.25 32.5958 22.3935 36.75 27.5 36.75C32.6065 36.75 36.75 32.5958 36.75 27.5C36.75 22.4042 32.6065 18.25 27.5 18.25Z" fill="#212121" stroke="#212121"/>
<path d="M35.8242 35.8232C35.919 35.7285 36.082 35.7285 36.1768 35.8232L38.1768 37.8232C38.2714 37.918 38.2715 38.0811 38.1768 38.1758C38.1255 38.2271 38.0645 38.249 38 38.249C37.9356 38.2489 37.8754 38.2269 37.8242 38.1758L35.8242 36.1758C35.7295 36.081 35.7295 35.918 35.8242 35.8232Z" fill="#212121" stroke="#212121"/>
</svg>
