<svg width="25" height="24" viewBox="0 0 25 24" fill="none" xmlns="http://www.w3.org/2000/svg">
<path d="M14.2299 3.51063L15.9899 7.03063C16.2299 7.52063 16.8699 7.99062 17.4099 8.08063L20.5999 8.61062C22.6399 8.95062 23.1199 10.4306 21.6499 11.8906L19.1699 14.3706C18.7499 14.7906 18.5199 15.6006 18.6499 16.1806L19.3599 19.2506C19.9199 21.6806 18.6299 22.6206 16.4799 21.3506L13.4899 19.5806C12.9499 19.2606 12.0599 19.2606 11.5099 19.5806L8.51991 21.3506C6.37991 22.6206 5.07991 21.6706 5.63991 19.2506L6.34991 16.1806C6.47991 15.6006 6.24991 14.7906 5.82991 14.3706L3.34991 11.8906C1.88991 10.4306 2.35991 8.95062 4.39991 8.61062L7.58991 8.08063C8.11991 7.99062 8.75991 7.52063 8.99991 7.03063L10.7599 3.51063C11.7199 1.60063 13.2799 1.60063 14.2299 3.51063Z" fill="#FDB713"/>
</svg>
