<svg xmlns="http://www.w3.org/2000/svg" version="1.1" xmlns:xlink="http://www.w3.org/1999/xlink" width="60" height="60"><svg width="60" height="60" viewBox="0 0 60 60" fill="none" xmlns="http://www.w3.org/2000/svg">
<path d="M43.7982 27.6446C43.351 24.158 41.3736 21.0128 38.3011 18.9009C35.2285 16.789 31.3125 15.8835 27.4144 16.3834C23.5164 16.8834 19.9556 18.7479 17.5155 21.5669C15.0754 24.3858 13.9558 27.9282 14.4029 31.4148L24.1139 30.1693C23.9621 28.9863 24.342 27.7844 25.1699 26.828C25.9978 25.8716 27.2059 25.239 28.5285 25.0693C29.851 24.8997 31.1797 25.207 32.2222 25.9235C33.2646 26.64 33.9355 27.7071 34.0873 28.8901L43.7982 27.6446Z" fill="#194BF0"></path>
<path d="M44.0022 30.526C44.4454 34.0131 43.3216 37.5542 40.8782 40.3703C38.4348 43.1864 34.8719 45.0468 30.9732 45.5422C27.0746 46.0376 23.1596 45.1275 20.0895 43.012C17.0195 40.8966 15.0458 37.7491 14.6026 34.2619L24.315 33.0277C24.4653 34.2109 25.135 35.2788 26.1766 35.9965C27.2183 36.7143 28.5466 37.023 29.8693 36.855C31.1921 36.6869 32.4009 36.0557 33.2299 35.1002C34.0589 34.1448 34.4402 32.9433 34.2899 31.7602L44.0022 30.526Z" fill="#FDB713"></path>
<circle cx="29.2168" cy="31" r="3.5" fill="#194BF0"></circle>
<circle cx="29.7168" cy="30.5" r="25" stroke="#194BF0" stroke-width="8"></circle>
<path d="M58.5078 21.1633C60.5436 28.9441 60.426 33.3108 58.4835 41.0872L48.7391 37.5593C49.3099 32.5516 49.2707 29.8707 48.7541 25.2533L58.5078 21.1633Z" fill="#FDB713"></path>
<path d="M3.62564 13.8173C8.54939 7.45786 12.0813 4.88731 19.4283 1.68311L22.5768 11.5566C18.2605 14.1589 16.16 15.8254 12.8163 19.0512L3.62564 13.8173Z" fill="#FDB713"></path>
</svg><style>@media (prefers-color-scheme: light) { :root { filter: contrast(1) brightness(0.9); } }
@media (prefers-color-scheme: dark) { :root { filter: none; } }
</style></svg>