<svg width="80" height="81" viewBox="0 0 80 81" fill="none" xmlns="http://www.w3.org/2000/svg">
<rect x="0.5" y="1" width="79" height="79" rx="15.5" fill="white"/>
<rect x="0.5" y="1" width="79" height="79" rx="15.5" stroke="#D7D7D7"/>
<path d="M20 40.7207H54C54.5439 40.7207 55 41.1768 55 41.7207C55 42.2646 54.5439 42.7207 54 42.7207H20C19.4561 42.7207 19 42.2646 19 41.7207C19 41.1768 19.4561 40.7207 20 40.7207Z" fill="#494949" stroke="#494949"/>
<path d="M27.5605 28.5996H46.4404C49.8474 28.5997 51.9328 29.1485 53.1904 30.3926C54.4465 31.6352 55 33.6939 55 37.0596V51.3594C54.9597 54.5983 54.3901 56.5759 53.1377 57.7705C51.8792 58.9709 49.8087 59.4999 46.4404 59.5H27.5605C24.1534 59.5 22.0673 58.951 20.8096 57.707C19.5536 56.4644 19 54.4054 19 51.04V37.0596C19 34.3806 19.3104 32.3825 20.292 31.0078C21.2477 29.6694 22.9229 28.8155 25.9385 28.6387L25.9395 28.6396C26.4597 28.6196 26.9914 28.5996 27.5605 28.5996ZM27.5605 30.5996C27.0088 30.5996 26.4988 30.6196 26.0381 30.6396L26.0293 30.6406C24.2556 30.7496 22.8984 30.9911 22.0527 32.0107C21.634 32.5158 21.3748 33.1702 21.2178 33.9873C21.0611 34.8028 21 35.8133 21 37.0596V51.04C21 52.3258 21.0521 53.3797 21.2227 54.2295C21.3944 55.085 21.6945 55.7763 22.2217 56.2959C22.7481 56.8146 23.4482 57.1099 24.3154 57.2793C25.1779 57.4477 26.2498 57.5 27.5605 57.5H46.4404C47.736 57.5 48.7944 57.4499 49.6475 57.29C50.5042 57.1295 51.1982 56.8503 51.7246 56.3574C52.2538 55.8619 52.5601 55.2001 52.7412 54.3818C52.8758 53.7736 52.9458 53.0571 52.9785 52.2217L53 51.3457V37.0596C53 35.7737 52.9479 34.7199 52.7773 33.8701C52.6056 33.0145 52.3055 32.3233 51.7783 31.8037C51.2519 31.2849 50.5519 30.9897 49.6846 30.8203C48.8222 30.6519 47.751 30.5996 46.4404 30.5996H27.5605Z" fill="#494949" stroke="#494949"/>
<path d="M33.5605 21.5H52.4404C55.8474 21.5001 57.9328 22.0489 59.1904 23.293C60.4465 24.5356 61 26.5943 61 29.96V43.9404C61 46.6193 60.6895 48.6176 59.708 49.9922C58.7525 51.3302 57.0777 52.1833 54.0635 52.3604H54C53.7345 52.3604 53.4881 52.2604 53.334 52.1064L53.3271 52.1006L53.3213 52.0947L53.25 52.0205C53.0922 51.8396 53.0001 51.6037 53 51.3604V37.0596C53 35.7738 52.9479 34.7199 52.7773 33.8701C52.6056 33.0146 52.3055 32.3233 51.7783 31.8037C51.2519 31.285 50.5518 30.9897 49.6846 30.8203C48.8222 30.6519 47.751 30.5996 46.4404 30.5996H27.5605C27.0088 30.5996 26.4988 30.6206 26.0381 30.6406H26.0352C25.7833 30.6532 25.5118 30.5515 25.3008 30.3545C25.1129 30.179 25.0015 29.9183 25 29.626C25.0397 26.3941 25.6094 24.4205 26.8623 23.2275C28.1209 22.0293 30.192 21.5 33.5605 21.5ZM33.5605 23.5C32.4141 23.5 31.4553 23.5382 30.6621 23.6562C29.8693 23.7742 29.2061 23.9766 28.6729 24.3271C27.5662 25.0547 27.1934 26.2977 27.0615 28.0625L27.0215 28.5996H46.4404C49.8473 28.5997 51.9328 29.1487 53.1904 30.3926C54.4464 31.6352 55 33.6942 55 37.0596V50.2988L55.5889 50.1924C56.8308 49.9676 57.7533 49.5059 58.3125 48.4482C58.8362 47.4574 59 46.0074 59 43.9404V29.96C59 28.6741 58.9479 27.6203 58.7773 26.7705C58.6056 25.9149 58.3055 25.2237 57.7783 24.7041C57.2519 24.1853 56.5519 23.8901 55.6846 23.7207C54.8222 23.5523 53.751 23.5 52.4404 23.5H33.5605Z" fill="#494949" stroke="#494949"/>
<path d="M26.4805 51.1191H29.9209C30.4646 51.1193 30.9209 51.5754 30.9209 52.1191C30.9209 52.6672 30.4802 53.1189 29.9209 53.1191H26.4805C25.9366 53.1191 25.4805 52.663 25.4805 52.1191C25.4805 51.5753 25.9366 51.1191 26.4805 51.1191Z" fill="#494949" stroke="#494949"/>
<path d="M34.2197 51.1191H41.0996C41.6435 51.1191 42.0996 51.5753 42.0996 52.1191C42.0996 52.6674 41.6591 53.1191 41.0996 53.1191H34.2197C33.6759 53.1191 33.2197 52.663 33.2197 52.1191C33.2197 51.5753 33.6759 51.1191 34.2197 51.1191Z" fill="#494949" stroke="#494949"/>
</svg>
