<svg width="80" height="80" viewBox="0 0 80 80" fill="none" xmlns="http://www.w3.org/2000/svg">
<rect x="0.5" y="0.5" width="79" height="79" rx="15.5" fill="white"/>
<rect x="0.5" y="0.5" width="79" height="79" rx="15.5" stroke="#D7D7D7"/>
<path d="M33.4736 23.7344C39.7588 17.4686 49.9826 17.4487 56.2871 23.7334C59.3326 26.7789 60.9999 30.8315 61 35.1396C61 39.4473 59.3328 43.4995 56.2881 46.5449C52.2112 50.5827 46.4115 52.1711 40.9443 50.7754L40.668 50.7051L40.4668 50.9062L31.667 59.6855L31.6582 59.6943C30.926 60.4613 29.5645 61 28.3604 61C28.1887 61 27.9907 60.9824 27.8154 60.9629L23.4883 60.3643H23.4873C21.6895 60.1222 20.0294 58.5333 19.666 56.7031L19.6348 56.5254L19.0361 52.1523L19.0352 52.1494L19.0107 51.916C18.9721 51.3606 19.0621 50.728 19.2646 50.1143C19.4955 49.4147 19.8598 48.7772 20.2939 48.333L29.0742 39.5537L29.2744 39.3535L29.2051 39.0781C27.8277 33.5677 29.4189 27.7496 33.4717 23.7354L33.4736 23.7344ZM44.8604 21.0195C41.2346 21.0195 37.6262 22.3881 34.8682 25.1455C31.137 28.8559 29.7895 34.2863 31.3408 39.3408V39.3418C31.449 39.7071 31.3565 40.0771 31.0869 40.3467L21.6865 49.7461C21.4348 49.9978 21.2491 50.3907 21.1348 50.7393C21.0201 51.0887 20.9403 51.507 20.9844 51.8447L20.9854 51.8477L21.585 56.2275L21.5859 56.2383C21.6667 56.7491 21.9689 57.2444 22.333 57.6172C22.6957 57.9884 23.1874 58.3055 23.7148 58.375L28.0723 58.9756V58.9736C28.4225 59.0282 28.8441 58.9551 29.1943 58.8438C29.5483 58.7312 29.9401 58.5449 30.1924 58.293L30.1934 58.2939L39.6338 48.874V48.873C39.8937 48.6133 40.2775 48.5285 40.6328 48.6377C45.6314 50.2128 51.0836 48.8634 54.8135 45.1338C57.4678 42.4794 58.9404 38.9114 58.9404 35.1396C58.9404 31.4661 57.5588 28.022 55.0596 25.3975L54.8135 25.1465C52.1144 22.4075 48.4851 21.0196 44.8604 21.0195Z" fill="#494949" stroke="#494949"/>
<path d="M29.0732 50.2725C29.4579 49.8878 30.1015 49.8881 30.4863 50.2725L35.0869 54.873C35.4714 55.2578 35.4716 55.9015 35.0869 56.2861C34.8856 56.4874 34.6344 56.5791 34.3799 56.5791C34.1255 56.579 33.875 56.4872 33.6738 56.2861L29.0732 51.6855C28.6889 51.3008 28.6886 50.6571 29.0732 50.2725Z" fill="#494949" stroke="#494949"/>
<path d="M45 31C47.2039 31 49 32.7961 49 35C49 37.2039 47.2039 39 45 39C42.7961 39 41 37.2039 41 35C41 32.7961 42.7961 31 45 31ZM45 33C43.9039 33 43 33.9039 43 35C43 36.0961 43.9039 37 45 37C46.0961 37 47 36.0961 47 35C47 33.9039 46.0961 33 45 33Z" fill="#494949" stroke="#494949"/>
</svg>
